<svg xmlns="http://www.w3.org/2000/svg" width="180" height="180" fill="none"><path fill-rule="evenodd" clip-rule="evenodd" d="M40.02 79.887C41.355 60.096 68.672 45.583 82.5 40.71V24c-.491.153-.991.313-1.5.48-26.946 8.846-78 37.272-78 84.69 0 60.391 79.5 59.354 79.5 14.176 0-34.909-26.45-42.523-41.031-42.033-.516.017-1.016.045-1.5.082 0-.506.017-1.009.05-1.508zM81 26.06c-13.046 4.348-31.624 13.26-47.21 26.643C17.414 66.763 4.5 85.612 4.5 109.17c0 14.748 4.844 25.62 11.999 33.001 7.172 7.4 16.757 11.386 26.375 12.18 9.627.796 19.191-1.613 26.313-6.875C76.27 142.243 81 134.148 81 123.346c0-17.617-6.876-27.894-15.3-33.698-8.513-5.864-18.782-7.276-25.618-6.758l-1.613.123v-1.618c0-10.988 7.553-20.297 16.521-27.358 8.61-6.78 18.833-11.736 26.01-14.38V26.06zm52.02 53.827c1.335-19.791 28.652-34.304 42.48-39.176V24c-.491.153-.991.313-1.5.48-26.946 8.846-78 37.272-78 84.69 0 60.391 79.5 59.354 79.5 14.176 0-34.909-26.451-42.523-41.031-42.033-.516.017-1.016.045-1.5.082 0-.506.017-1.009.051-1.508zM174 26.06c-13.046 4.348-31.624 13.26-47.21 26.643-16.376 14.06-29.29 32.909-29.29 56.467 0 14.748 4.844 25.62 11.999 33.001 7.172 7.4 16.757 11.386 26.375 12.18 9.627.796 19.191-1.613 26.313-6.875 7.083-5.233 11.813-13.328 11.813-24.13 0-17.617-6.877-27.894-15.3-33.698-8.513-5.864-18.782-7.276-25.618-6.758l-1.613.123v-1.618c0-10.988 7.553-20.297 16.521-27.358 8.61-6.78 18.833-11.736 26.01-14.38V26.06z" fill="#fff"/></svg>