<svg xmlns="http://www.w3.org/2000/svg" width="456" height="264" fill="none"><path fill-rule="evenodd" clip-rule="evenodd" d="M42.296 149.567c-7 12.576-9.377 24.929-6.314 36.362 3.064 11.433 11.299 20.942 23.649 28.334 12.353 7.393 28.794 12.65 48.196 15.578 38.801 5.854 89.34 2.377 142.412-11.843 53.071-14.221 98.578-36.479 129.253-60.95 15.339-12.236 26.949-25.01 33.95-37.589 7-12.576 9.377-24.929 6.314-36.362-3.064-11.433-11.299-20.942-23.649-28.334-12.353-7.393-28.795-12.65-48.196-15.578-38.801-5.854-89.341-2.377-142.412 11.843-53.071 14.22-98.578 36.48-129.253 60.95-15.339 12.236-26.95 25.01-33.95 37.589zm33.326-38.371c30.806-24.575 76.447-46.886 129.619-61.133 53.171-14.248 103.853-17.746 142.819-11.867 19.483 2.94 36.061 8.228 48.561 15.71 12.502 7.482 20.951 17.179 24.101 28.932 3.149 11.754.68 24.376-6.406 37.107-7.084 12.729-18.798 25.598-34.2 37.885-30.806 24.575-76.447 46.886-129.619 61.133-53.171 14.248-103.853 17.746-142.819 11.866-19.483-2.939-36.061-8.227-48.56-15.708-12.503-7.483-20.953-17.18-24.102-28.933-3.15-11.754-.68-24.376 6.406-37.107 7.084-12.729 18.797-25.598 34.2-37.885z" fill="#AAA"/><path d="M99 72c.189 13.176 10.824 23.811 24 24-13.176.189-23.811 10.824-24 24-.189-13.176-10.824-23.811-24-24 13.176-.189 23.811-10.824 24-24z" fill="#F5F5F5"/><path fill-rule="evenodd" clip-rule="evenodd" d="M79.644 96c9.721 1.984 17.373 9.635 19.356 19.357 1.983-9.722 9.635-17.373 19.356-19.357-9.721-1.983-17.373-9.635-19.356-19.356C97.017 86.365 89.365 94.017 79.644 96zM99 72l-.5-.007C98.315 84.898 87.898 95.315 74.993 95.5L75 96l-.007.5c12.905.185 23.322 10.602 23.507 23.508L99 120l.5.008c.185-12.906 10.602-23.323 23.507-23.508L123 96l.007-.5c-12.905-.185-23.322-10.602-23.507-23.507L99 72z" fill="#AAA"/></svg>