<?xml version="1.0" encoding="UTF-8"?> <svg xmlns="http://www.w3.org/2000/svg" width="180" height="180" viewBox="0 0 180 180" fill="none"> <path fill-rule="evenodd" clip-rule="evenodd" d="M40.0195 79.8868C41.3554 60.0956 68.6717 45.5826 82.5 40.7113V24C82.0089 24.1531 81.5088 24.3131 81 24.4801C54.0539 33.3262 3 61.7523 3 109.17C3 169.561 82.5 168.524 82.5 123.346C82.5 88.4373 56.0491 80.8232 41.4688 81.3131C40.9534 81.3304 40.4527 81.3578 39.9687 81.3946C39.9687 80.8887 39.9858 80.386 40.0195 79.8868ZM81 26.0601C67.9543 30.4083 49.3757 39.3205 33.7897 52.703C17.4136 66.7638 4.5 85.6118 4.5 109.17C4.5 123.918 9.34405 134.79 16.499 142.171C23.6714 149.571 33.2559 153.557 42.8735 154.351C52.5012 155.147 62.0654 152.738 69.1868 147.476C76.27 142.243 81 134.148 81 123.346C81 105.729 74.1235 95.4519 65.6998 89.6485C57.1872 83.784 46.9182 82.3716 40.0821 82.8903L38.4687 83.0127V81.3946C38.4687 70.4067 46.0224 61.0976 54.99 54.037C63.6001 47.2577 73.8226 42.3011 81 39.6575V26.0601Z" fill="white"></path> <path fill-rule="evenodd" clip-rule="evenodd" d="M133.02 79.8868C134.355 60.0956 161.672 45.5826 175.5 40.7113V24C175.009 24.1531 174.509 24.3131 174 24.4801C147.054 33.3262 96 61.7523 96 109.17C96 169.561 175.5 168.524 175.5 123.346C175.5 88.4373 149.049 80.8232 134.469 81.3131C133.953 81.3304 133.453 81.3578 132.969 81.3946C132.969 80.8887 132.986 80.386 133.02 79.8868ZM174 26.0601C160.954 30.4083 142.376 39.3205 126.79 52.703C110.414 66.7638 97.5 85.6118 97.5 109.17C97.5 123.918 102.344 134.79 109.499 142.171C116.671 149.571 126.256 153.557 135.874 154.351C145.501 155.147 155.065 152.738 162.187 147.476C169.27 142.243 174 134.148 174 123.346C174 105.729 167.123 95.4519 158.7 89.6485C150.187 83.784 139.918 82.3716 133.082 82.8903L131.469 83.0127V81.3946C131.469 70.4067 139.022 61.0976 147.99 54.037C156.6 47.2577 166.823 42.3011 174 39.6575V26.0601Z" fill="white"></path> </svg> 